<?xml version="1.0" encoding="UTF-8" standalone="no"?>
<!DOCTYPE svg PUBLIC "-//W3C//DTD SVG 1.1//EN"
 "http://www.w3.org/Graphics/SVG/1.1/DTD/svg11.dtd">
<!-- Generated by graphviz version 11.0.0 (20240428.1522)
 -->
<!-- Title: Entity Relationship Diagram created by erdantic Pages: 1 -->
<svg width="280pt" height="301pt"
 viewBox="0.00 0.00 279.75 301.25" xmlns="http://www.w3.org/2000/svg" xmlns:xlink="http://www.w3.org/1999/xlink">
<g id="graph0" class="graph" transform="scale(1 1) rotate(0) translate(4 297.25)">
<title>Entity Relationship Diagram created by erdantic</title>
<polygon fill="white" stroke="none" points="-4,4 -4,-297.25 275.75,-297.25 275.75,4 -4,4"/>
<text text-anchor="middle" x="135.88" y="-6.7" font-family="Times New Roman,Times,Liberation Serif,serif" font-size="9.00" fill="#a8a8a8">Created by erdantic v1.0.3 &lt;https://github.com/drivendataorg/erdantic&gt;</text>
<!-- aind_behavior_services.session.AindBehaviorSessionModel -->
<g id="node1" class="node">
<title>aind_behavior_services.session.AindBehaviorSessionModel</title>
<g id="a_node1"><a xlink:title="aind_behavior_services.session.AindBehaviorSessionModel&#10;&#10;Usage docs: https://docs.pydantic.dev/2.7/concepts/models/&#10;&#10;A base class for creating Pydantic models.&#10;&#10;Attributes:&#10; &#160;&#160;&#160;__class_vars__: The names of classvars defined on the model.&#10; &#160;&#160;&#160;__private_attributes__: Metadata about the private attributes of the model.&#10; &#160;&#160;&#160;__signature__: The signature for instantiating the model.&#10;&#10; &#160;&#160;&#160;__pydantic_complete__: Whether model building is completed, or if there are still undefined fields.&#10; &#160;&#160;&#160;__pydantic_core_schema__: The pydantic&#45;core schema used to build the SchemaValidator and SchemaSerializer.&#10; &#160;&#160;&#160;__pydantic_custom_init__: Whether the model has a custom `__init__` function.&#10; &#160;&#160;&#160;__pydantic_decorators__: Metadata containing the decorators defined on the model.&#10; &#160;&#160;&#160;&#160;&#160;&#160;&#160;This replaces `Model.__validators__` and `Model.__root_validators__` from Pydantic V1.&#10; &#160;&#160;&#160;__pydantic_generic_metadata__: Metadata for generic models; contains data used for a similar purpose to&#10; &#160;&#160;&#160;&#160;&#160;&#160;&#160;__args__, __origin__, __parameters__ in typing&#45;module generics. May eventually be replaced by these.&#10; &#160;&#160;&#160;__pydantic_parent_namespace__: Parent namespace of the model, used for automatic rebuilding of models.&#10; &#160;&#160;&#160;__pydantic_post_init__: The name of the post&#45;init method for the model, if defined.&#10; &#160;&#160;&#160;__pydantic_root_model__: Whether the model is a `RootModel`.&#10; &#160;&#160;&#160;__pydantic_serializer__: The pydantic&#45;core SchemaSerializer used to dump instances of the model.&#10; &#160;&#160;&#160;__pydantic_validator__: The pydantic&#45;core SchemaValidator used to validate instances of the model.&#10;&#10; &#160;&#160;&#160;__pydantic_extra__: An instance attribute with the values of extra fields from validation when&#10; &#160;&#160;&#160;&#160;&#160;&#160;&#160;`model_config[&#39;extra&#39;] == &#39;allow&#39;`.&#10; &#160;&#160;&#160;__pydantic_fields_set__: An instance attribute with the names of fields explicitly set.&#10; &#160;&#160;&#160;__pydantic_private__: Instance attribute with the values of private attributes set on the model instance.&#10;">
<polygon fill="none" stroke="black" points="20.38,-271.25 20.38,-293.25 251.38,-293.25 251.38,-271.25 20.38,-271.25"/>
<text text-anchor="start" x="51.5" y="-277.95" font-family="Times New Roman,Times,Liberation Serif,serif" font-weight="bold" font-size="14.00">AindBehaviorSessionModel</text>
<polygon fill="none" stroke="black" points="20.38,-250.25 20.38,-271.25 168.38,-271.25 168.38,-250.25 20.38,-250.25"/>
<text text-anchor="start" x="74.12" y="-254.95" font-family="Times New Roman,Times,Liberation Serif,serif" font-size="14.00">version</text>
<polygon fill="none" stroke="black" points="168.38,-250.25 168.38,-271.25 251.38,-271.25 251.38,-250.25 168.38,-250.25"/>
<text text-anchor="start" x="171.25" y="-254.95" font-family="Times New Roman,Times,Liberation Serif,serif" font-size="14.00">Literal[&#39;0.2.0&#39;]</text>
<polygon fill="none" stroke="black" points="20.38,-229.25 20.38,-250.25 168.38,-250.25 168.38,-229.25 20.38,-229.25"/>
<text text-anchor="start" x="64" y="-233.95" font-family="Times New Roman,Times,Liberation Serif,serif" font-size="14.00">experiment</text>
<polygon fill="none" stroke="black" points="168.38,-229.25 168.38,-250.25 251.38,-250.25 251.38,-229.25 168.38,-229.25"/>
<text text-anchor="start" x="202.75" y="-233.95" font-family="Times New Roman,Times,Liberation Serif,serif" font-size="14.00">str</text>
<polygon fill="none" stroke="black" points="20.38,-208.25 20.38,-229.25 168.38,-229.25 168.38,-208.25 20.38,-208.25"/>
<text text-anchor="start" x="58.75" y="-212.95" font-family="Times New Roman,Times,Liberation Serif,serif" font-size="14.00">experimenter</text>
<polygon fill="none" stroke="black" points="168.38,-208.25 168.38,-229.25 251.38,-229.25 251.38,-208.25 168.38,-208.25"/>
<text text-anchor="start" x="187.75" y="-212.95" font-family="Times New Roman,Times,Liberation Serif,serif" font-size="14.00">List[str]</text>
<polygon fill="none" stroke="black" points="20.38,-187.25 20.38,-208.25 168.38,-208.25 168.38,-187.25 20.38,-187.25"/>
<text text-anchor="start" x="82.75" y="-191.95" font-family="Times New Roman,Times,Liberation Serif,serif" font-size="14.00">date</text>
<polygon fill="none" stroke="black" points="168.38,-187.25 168.38,-208.25 251.38,-208.25 251.38,-187.25 168.38,-187.25"/>
<text text-anchor="start" x="186.62" y="-191.95" font-family="Times New Roman,Times,Liberation Serif,serif" font-size="14.00">datetime</text>
<polygon fill="none" stroke="black" points="20.38,-166.25 20.38,-187.25 168.38,-187.25 168.38,-166.25 20.38,-166.25"/>
<text text-anchor="start" x="67" y="-170.95" font-family="Times New Roman,Times,Liberation Serif,serif" font-size="14.00">root_path</text>
<polygon fill="none" stroke="black" points="168.38,-166.25 168.38,-187.25 251.38,-187.25 251.38,-166.25 168.38,-166.25"/>
<text text-anchor="start" x="202.75" y="-170.95" font-family="Times New Roman,Times,Liberation Serif,serif" font-size="14.00">str</text>
<polygon fill="none" stroke="black" points="20.38,-145.25 20.38,-166.25 168.38,-166.25 168.38,-145.25 20.38,-145.25"/>
<text text-anchor="start" x="59.5" y="-149.95" font-family="Times New Roman,Times,Liberation Serif,serif" font-size="14.00">remote_path</text>
<polygon fill="none" stroke="black" points="168.38,-145.25 168.38,-166.25 251.38,-166.25 251.38,-145.25 168.38,-145.25"/>
<text text-anchor="start" x="174.25" y="-149.95" font-family="Times New Roman,Times,Liberation Serif,serif" font-size="14.00">Optional[str]</text>
<polygon fill="none" stroke="black" points="20.38,-124.25 20.38,-145.25 168.38,-145.25 168.38,-124.25 20.38,-124.25"/>
<text text-anchor="start" x="74.5" y="-128.95" font-family="Times New Roman,Times,Liberation Serif,serif" font-size="14.00">subject</text>
<polygon fill="none" stroke="black" points="168.38,-124.25 168.38,-145.25 251.38,-145.25 251.38,-124.25 168.38,-124.25"/>
<text text-anchor="start" x="202.75" y="-128.95" font-family="Times New Roman,Times,Liberation Serif,serif" font-size="14.00">str</text>
<polygon fill="none" stroke="black" points="20.38,-103.25 20.38,-124.25 168.38,-124.25 168.38,-103.25 20.38,-103.25"/>
<text text-anchor="start" x="40" y="-107.95" font-family="Times New Roman,Times,Liberation Serif,serif" font-size="14.00">experiment_version</text>
<polygon fill="none" stroke="black" points="168.38,-103.25 168.38,-124.25 251.38,-124.25 251.38,-103.25 168.38,-103.25"/>
<text text-anchor="start" x="202.75" y="-107.95" font-family="Times New Roman,Times,Liberation Serif,serif" font-size="14.00">str</text>
<polygon fill="none" stroke="black" points="20.38,-82.25 20.38,-103.25 168.38,-103.25 168.38,-82.25 20.38,-82.25"/>
<text text-anchor="start" x="79.38" y="-86.95" font-family="Times New Roman,Times,Liberation Serif,serif" font-size="14.00">notes</text>
<polygon fill="none" stroke="black" points="168.38,-82.25 168.38,-103.25 251.38,-103.25 251.38,-82.25 168.38,-82.25"/>
<text text-anchor="start" x="174.25" y="-86.95" font-family="Times New Roman,Times,Liberation Serif,serif" font-size="14.00">Optional[str]</text>
<polygon fill="none" stroke="black" points="20.38,-61.25 20.38,-82.25 168.38,-82.25 168.38,-61.25 20.38,-61.25"/>
<text text-anchor="start" x="56.88" y="-65.95" font-family="Times New Roman,Times,Liberation Serif,serif" font-size="14.00">commit_hash</text>
<polygon fill="none" stroke="black" points="168.38,-61.25 168.38,-82.25 251.38,-82.25 251.38,-61.25 168.38,-61.25"/>
<text text-anchor="start" x="174.25" y="-65.95" font-family="Times New Roman,Times,Liberation Serif,serif" font-size="14.00">Optional[str]</text>
<polygon fill="none" stroke="black" points="20.38,-40.25 20.38,-61.25 168.38,-61.25 168.38,-40.25 20.38,-40.25"/>
<text text-anchor="start" x="46.75" y="-44.95" font-family="Times New Roman,Times,Liberation Serif,serif" font-size="14.00">allow_dirty_repo</text>
<polygon fill="none" stroke="black" points="168.38,-40.25 168.38,-61.25 251.38,-61.25 251.38,-40.25 168.38,-40.25"/>
<text text-anchor="start" x="197.12" y="-44.95" font-family="Times New Roman,Times,Liberation Serif,serif" font-size="14.00">bool</text>
<polygon fill="none" stroke="black" points="20.38,-19.25 20.38,-40.25 168.38,-40.25 168.38,-19.25 20.38,-19.25"/>
<text text-anchor="start" x="23.12" y="-23.95" font-family="Times New Roman,Times,Liberation Serif,serif" font-size="14.00">skip_hardware_validation</text>
<polygon fill="none" stroke="black" points="168.38,-19.25 168.38,-40.25 251.38,-40.25 251.38,-19.25 168.38,-19.25"/>
<text text-anchor="start" x="197.12" y="-23.95" font-family="Times New Roman,Times,Liberation Serif,serif" font-size="14.00">bool</text>
</a>
</g>
</g>
</g>
</svg>
