<?xml version="1.0" encoding="UTF-8" standalone="no"?>
<!DOCTYPE svg PUBLIC "-//W3C//DTD SVG 1.1//EN"
 "http://www.w3.org/Graphics/SVG/1.1/DTD/svg11.dtd">
<!-- Generated by graphviz version 12.2.1 (20241206.2353)
 -->
<!-- Title: Entity Relationship Diagram created by erdantic Pages: 1 -->
<svg width="307pt" height="342pt"
 viewBox="0.00 0.00 306.50 341.50" xmlns="http://www.w3.org/2000/svg" xmlns:xlink="http://www.w3.org/1999/xlink">
<g id="graph0" class="graph" transform="scale(1 1) rotate(0) translate(4 337.5)">
<title>Entity Relationship Diagram created by erdantic</title>
<polygon fill="white" stroke="none" points="-4,4 -4,-337.5 302.5,-337.5 302.5,4 -4,4"/>
<text text-anchor="middle" x="149.25" y="-5.95" font-family="Times New Roman,Times,Liberation Serif,serif" font-size="9.00" fill="#a8a8a8">Created by erdantic v1.0.5 &lt;https://github.com/drivendataorg/erdantic&gt;</text>
<!-- aind_behavior_services.session.AindBehaviorSessionModel -->
<g id="node1" class="node">
<title>aind_behavior_services.session.AindBehaviorSessionModel</title>
<g id="a_node1"><a xlink:title="aind_behavior_services.session.AindBehaviorSessionModel&#10;&#10;Usage docs: https://docs.pydantic.dev/2.10/concepts/models/&#10;&#10;A base class for creating Pydantic models.&#10;&#10;Attributes:&#10; &#160;&#160;&#160;__class_vars__: The names of the class variables defined on the model.&#10; &#160;&#160;&#160;__private_attributes__: Metadata about the private attributes of the model.&#10; &#160;&#160;&#160;__signature__: The synthesized `__init__` [`Signature`][inspect.Signature] of the model.&#10;&#10; &#160;&#160;&#160;__pydantic_complete__: Whether model building is completed, or if there are still undefined fields.&#10; &#160;&#160;&#160;__pydantic_core_schema__: The core schema of the model.&#10; &#160;&#160;&#160;__pydantic_custom_init__: Whether the model has a custom `__init__` function.&#10; &#160;&#160;&#160;__pydantic_decorators__: Metadata containing the decorators defined on the model.&#10; &#160;&#160;&#160;&#160;&#160;&#160;&#160;This replaces `Model.__validators__` and `Model.__root_validators__` from Pydantic V1.&#10; &#160;&#160;&#160;__pydantic_generic_metadata__: Metadata for generic models; contains data used for a similar purpose to&#10; &#160;&#160;&#160;&#160;&#160;&#160;&#160;__args__, __origin__, __parameters__ in typing&#45;module generics. May eventually be replaced by these.&#10; &#160;&#160;&#160;__pydantic_parent_namespace__: Parent namespace of the model, used for automatic rebuilding of models.&#10; &#160;&#160;&#160;__pydantic_post_init__: The name of the post&#45;init method for the model, if defined.&#10; &#160;&#160;&#160;__pydantic_root_model__: Whether the model is a [`RootModel`][pydantic.root_model.RootModel].&#10; &#160;&#160;&#160;__pydantic_serializer__: The `pydantic&#45;core` `SchemaSerializer` used to dump instances of the model.&#10; &#160;&#160;&#160;__pydantic_validator__: The `pydantic&#45;core` `SchemaValidator` used to validate instances of the model.&#10;&#10; &#160;&#160;&#160;__pydantic_fields__: A dictionary of field names and their corresponding [`FieldInfo`][pydantic.fields.FieldInfo] objects.&#10; &#160;&#160;&#160;__pydantic_computed_fields__: A dictionary of computed field names and their corresponding [`ComputedFieldInfo`][pydantic.fields.ComputedFieldInfo] objects.&#10;&#10; &#160;&#160;&#160;__pydantic_extra__: A dictionary containing extra values, if [`extra`][pydantic.config.ConfigDict.extra]&#10; &#160;&#160;&#160;&#160;&#160;&#160;&#160;is set to `&#39;allow&#39;`.&#10; &#160;&#160;&#160;__pydantic_fields_set__: The names of fields explicitly set during instantiation.&#10; &#160;&#160;&#160;__pydantic_private__: Values of private attributes set on the model instance.&#10;">
<polygon fill="none" stroke="black" points="0,-311 0,-333.5 298.5,-333.5 298.5,-311 0,-311"/>
<text text-anchor="start" x="69" y="-318.2" font-family="Times New Roman,Times,Liberation Serif,serif" font-weight="bold" font-size="14.00">AindBehaviorSessionModel</text>
<polygon fill="none" stroke="black" points="0,-288.5 0,-311 207,-311 207,-288.5 0,-288.5"/>
<text text-anchor="start" x="3" y="-294.7" font-family="Times New Roman,Times,Liberation Serif,serif" font-size="14.00">aind_behavior_services_pkg_version</text>
<polygon fill="none" stroke="black" points="207,-288.5 207,-311 298.5,-311 298.5,-288.5 207,-288.5"/>
<text text-anchor="start" x="210.75" y="-294.7" font-family="Times New Roman,Times,Liberation Serif,serif" font-size="14.00">Literal[&#39;0.10.2&#39;]</text>
<polygon fill="none" stroke="black" points="0,-266 0,-288.5 207,-288.5 207,-266 0,-266"/>
<text text-anchor="start" x="83.62" y="-272.2" font-family="Times New Roman,Times,Liberation Serif,serif" font-size="14.00">version</text>
<polygon fill="none" stroke="black" points="207,-266 207,-288.5 298.5,-288.5 298.5,-266 207,-266"/>
<text text-anchor="start" x="214.12" y="-272.2" font-family="Times New Roman,Times,Liberation Serif,serif" font-size="14.00">Literal[&#39;0.3.1&#39;]</text>
<polygon fill="none" stroke="black" points="0,-243.5 0,-266 207,-266 207,-243.5 0,-243.5"/>
<text text-anchor="start" x="72.75" y="-249.7" font-family="Times New Roman,Times,Liberation Serif,serif" font-size="14.00">experiment</text>
<polygon fill="none" stroke="black" points="207,-243.5 207,-266 298.5,-266 298.5,-243.5 207,-243.5"/>
<text text-anchor="start" x="246" y="-249.7" font-family="Times New Roman,Times,Liberation Serif,serif" font-size="14.00">str</text>
<polygon fill="none" stroke="black" points="0,-221 0,-243.5 207,-243.5 207,-221 0,-221"/>
<text text-anchor="start" x="67.5" y="-227.2" font-family="Times New Roman,Times,Liberation Serif,serif" font-size="14.00">experimenter</text>
<polygon fill="none" stroke="black" points="207,-221 207,-243.5 298.5,-243.5 298.5,-221 207,-221"/>
<text text-anchor="start" x="231" y="-227.2" font-family="Times New Roman,Times,Liberation Serif,serif" font-size="14.00">List[str]</text>
<polygon fill="none" stroke="black" points="0,-198.5 0,-221 207,-221 207,-198.5 0,-198.5"/>
<text text-anchor="start" x="92.25" y="-204.7" font-family="Times New Roman,Times,Liberation Serif,serif" font-size="14.00">date</text>
<polygon fill="none" stroke="black" points="207,-198.5 207,-221 298.5,-221 298.5,-198.5 207,-198.5"/>
<text text-anchor="start" x="210" y="-204.7" font-family="Times New Roman,Times,Liberation Serif,serif" font-size="14.00">AwareDatetime</text>
<polygon fill="none" stroke="black" points="0,-176 0,-198.5 207,-198.5 207,-176 0,-176"/>
<text text-anchor="start" x="77.62" y="-182.2" font-family="Times New Roman,Times,Liberation Serif,serif" font-size="14.00">root_path</text>
<polygon fill="none" stroke="black" points="207,-176 207,-198.5 298.5,-198.5 298.5,-176 207,-176"/>
<text text-anchor="start" x="246" y="-182.2" font-family="Times New Roman,Times,Liberation Serif,serif" font-size="14.00">str</text>
<polygon fill="none" stroke="black" points="0,-153.5 0,-176 207,-176 207,-153.5 0,-153.5"/>
<text text-anchor="start" x="65.62" y="-159.7" font-family="Times New Roman,Times,Liberation Serif,serif" font-size="14.00">session_name</text>
<polygon fill="none" stroke="black" points="207,-153.5 207,-176 298.5,-176 298.5,-153.5 207,-153.5"/>
<text text-anchor="start" x="217.88" y="-159.7" font-family="Times New Roman,Times,Liberation Serif,serif" font-size="14.00">Optional[str]</text>
<polygon fill="none" stroke="black" points="0,-131 0,-153.5 207,-153.5 207,-131 0,-131"/>
<text text-anchor="start" x="84.38" y="-137.2" font-family="Times New Roman,Times,Liberation Serif,serif" font-size="14.00">subject</text>
<polygon fill="none" stroke="black" points="207,-131 207,-153.5 298.5,-153.5 298.5,-131 207,-131"/>
<text text-anchor="start" x="246" y="-137.2" font-family="Times New Roman,Times,Liberation Serif,serif" font-size="14.00">str</text>
<polygon fill="none" stroke="black" points="0,-108.5 0,-131 207,-131 207,-108.5 0,-108.5"/>
<text text-anchor="start" x="49.5" y="-114.7" font-family="Times New Roman,Times,Liberation Serif,serif" font-size="14.00">experiment_version</text>
<polygon fill="none" stroke="black" points="207,-108.5 207,-131 298.5,-131 298.5,-108.5 207,-108.5"/>
<text text-anchor="start" x="246" y="-114.7" font-family="Times New Roman,Times,Liberation Serif,serif" font-size="14.00">str</text>
<polygon fill="none" stroke="black" points="0,-86 0,-108.5 207,-108.5 207,-86 0,-86"/>
<text text-anchor="start" x="89.25" y="-92.2" font-family="Times New Roman,Times,Liberation Serif,serif" font-size="14.00">notes</text>
<polygon fill="none" stroke="black" points="207,-86 207,-108.5 298.5,-108.5 298.5,-86 207,-86"/>
<text text-anchor="start" x="217.88" y="-92.2" font-family="Times New Roman,Times,Liberation Serif,serif" font-size="14.00">Optional[str]</text>
<polygon fill="none" stroke="black" points="0,-63.5 0,-86 207,-86 207,-63.5 0,-63.5"/>
<text text-anchor="start" x="66.38" y="-69.7" font-family="Times New Roman,Times,Liberation Serif,serif" font-size="14.00">commit_hash</text>
<polygon fill="none" stroke="black" points="207,-63.5 207,-86 298.5,-86 298.5,-63.5 207,-63.5"/>
<text text-anchor="start" x="217.88" y="-69.7" font-family="Times New Roman,Times,Liberation Serif,serif" font-size="14.00">Optional[str]</text>
<polygon fill="none" stroke="black" points="0,-41 0,-63.5 207,-63.5 207,-41 0,-41"/>
<text text-anchor="start" x="57" y="-47.2" font-family="Times New Roman,Times,Liberation Serif,serif" font-size="14.00">allow_dirty_repo</text>
<polygon fill="none" stroke="black" points="207,-41 207,-63.5 298.5,-63.5 298.5,-41 207,-41"/>
<text text-anchor="start" x="240.75" y="-47.2" font-family="Times New Roman,Times,Liberation Serif,serif" font-size="14.00">bool</text>
<polygon fill="none" stroke="black" points="0,-18.5 0,-41 207,-41 207,-18.5 0,-18.5"/>
<text text-anchor="start" x="33.38" y="-24.7" font-family="Times New Roman,Times,Liberation Serif,serif" font-size="14.00">skip_hardware_validation</text>
<polygon fill="none" stroke="black" points="207,-18.5 207,-41 298.5,-41 298.5,-18.5 207,-18.5"/>
<text text-anchor="start" x="240.75" y="-24.7" font-family="Times New Roman,Times,Liberation Serif,serif" font-size="14.00">bool</text>
</a>
</g>
</g>
</g>
</svg>
