<?xml version="1.0" encoding="UTF-8" standalone="no"?>
<!DOCTYPE svg PUBLIC "-//W3C//DTD SVG 1.1//EN"
 "http://www.w3.org/Graphics/SVG/1.1/DTD/svg11.dtd">
<!-- Generated by graphviz version 2.43.0 (0)
 -->
<!-- Title: Entity Relationship Diagram created by erdantic Pages: 1 -->
<svg width="308pt" height="320pt"
 viewBox="0.00 0.00 308.00 320.00" xmlns="http://www.w3.org/2000/svg" xmlns:xlink="http://www.w3.org/1999/xlink">
<g id="graph0" class="graph" transform="scale(1 1) rotate(0) translate(4 316)">
<title>Entity Relationship Diagram created by erdantic</title>
<polygon fill="white" stroke="transparent" points="-4,4 -4,-316 304,-316 304,4 -4,4"/>
<text text-anchor="middle" x="150" y="-6.8" font-family="Times New Roman,Times,Liberation Serif,serif" font-size="9.00" fill="#a8a8a8">Created by erdantic v1.0.5 &lt;https://github.com/drivendataorg/erdantic&gt;</text>
<!-- aind_behavior_services.session.AindBehaviorSessionModel -->
<g id="node1" class="node">
<title>aind_behavior_services.session.AindBehaviorSessionModel</title>
<g id="a_node1"><a xlink:title="aind_behavior_services.session.AindBehaviorSessionModel&#10;&#10;Usage docs: https://docs.pydantic.dev/2.10/concepts/models/&#10;&#10;A base class for creating Pydantic models.&#10;&#10;Attributes:&#10; &#160;&#160;&#160;__class_vars__: The names of the class variables defined on the model.&#10; &#160;&#160;&#160;__private_attributes__: Metadata about the private attributes of the model.&#10; &#160;&#160;&#160;__signature__: The synthesized `__init__` [`Signature`][inspect.Signature] of the model.&#10;&#10; &#160;&#160;&#160;__pydantic_complete__: Whether model building is completed, or if there are still undefined fields.&#10; &#160;&#160;&#160;__pydantic_core_schema__: The core schema of the model.&#10; &#160;&#160;&#160;__pydantic_custom_init__: Whether the model has a custom `__init__` function.&#10; &#160;&#160;&#160;__pydantic_decorators__: Metadata containing the decorators defined on the model.&#10; &#160;&#160;&#160;&#160;&#160;&#160;&#160;This replaces `Model.__validators__` and `Model.__root_validators__` from Pydantic V1.&#10; &#160;&#160;&#160;__pydantic_generic_metadata__: Metadata for generic models; contains data used for a similar purpose to&#10; &#160;&#160;&#160;&#160;&#160;&#160;&#160;__args__, __origin__, __parameters__ in typing&#45;module generics. May eventually be replaced by these.&#10; &#160;&#160;&#160;__pydantic_parent_namespace__: Parent namespace of the model, used for automatic rebuilding of models.&#10; &#160;&#160;&#160;__pydantic_post_init__: The name of the post&#45;init method for the model, if defined.&#10; &#160;&#160;&#160;__pydantic_root_model__: Whether the model is a [`RootModel`][pydantic.root_model.RootModel].&#10; &#160;&#160;&#160;__pydantic_serializer__: The `pydantic&#45;core` `SchemaSerializer` used to dump instances of the model.&#10; &#160;&#160;&#160;__pydantic_validator__: The `pydantic&#45;core` `SchemaValidator` used to validate instances of the model.&#10;&#10; &#160;&#160;&#160;__pydantic_fields__: A dictionary of field names and their corresponding [`FieldInfo`][pydantic.fields.FieldInfo] objects.&#10; &#160;&#160;&#160;__pydantic_computed_fields__: A dictionary of computed field names and their corresponding [`ComputedFieldInfo`][pydantic.fields.ComputedFieldInfo] objects.&#10;&#10; &#160;&#160;&#160;__pydantic_extra__: A dictionary containing extra values, if [`extra`][pydantic.config.ConfigDict.extra]&#10; &#160;&#160;&#160;&#160;&#160;&#160;&#160;is set to `&#39;allow&#39;`.&#10; &#160;&#160;&#160;__pydantic_fields_set__: The names of fields explicitly set during instantiation.&#10; &#160;&#160;&#160;__pydantic_private__: Values of private attributes set on the model instance.&#10;">
<polygon fill="none" stroke="black" points="0,-291 0,-312 300,-312 300,-291 0,-291"/>
<text text-anchor="start" x="69.5" y="-298.8" font-family="Times New Roman,Times,Liberation Serif,serif" font-weight="bold" font-size="14.00">AindBehaviorSessionModel</text>
<polygon fill="none" stroke="black" points="0,-270 0,-291 208,-291 208,-270 0,-270"/>
<text text-anchor="start" x="3" y="-276.8" font-family="Times New Roman,Times,Liberation Serif,serif" font-size="14.00">aind_behavior_services_pkg_version</text>
<polygon fill="none" stroke="black" points="208,-270 208,-291 300,-291 300,-270 208,-270"/>
<text text-anchor="start" x="211.5" y="-276.8" font-family="Times New Roman,Times,Liberation Serif,serif" font-size="14.00">Literal[&#39;0.10.2&#39;]</text>
<polygon fill="none" stroke="black" points="0,-249 0,-270 208,-270 208,-249 0,-249"/>
<text text-anchor="start" x="84" y="-255.8" font-family="Times New Roman,Times,Liberation Serif,serif" font-size="14.00">version</text>
<polygon fill="none" stroke="black" points="208,-249 208,-270 300,-270 300,-249 208,-249"/>
<text text-anchor="start" x="215" y="-255.8" font-family="Times New Roman,Times,Liberation Serif,serif" font-size="14.00">Literal[&#39;0.3.1&#39;]</text>
<polygon fill="none" stroke="black" points="0,-228 0,-249 208,-249 208,-228 0,-228"/>
<text text-anchor="start" x="73" y="-234.8" font-family="Times New Roman,Times,Liberation Serif,serif" font-size="14.00">experiment</text>
<polygon fill="none" stroke="black" points="208,-228 208,-249 300,-249 300,-228 208,-228"/>
<text text-anchor="start" x="247" y="-234.8" font-family="Times New Roman,Times,Liberation Serif,serif" font-size="14.00">str</text>
<polygon fill="none" stroke="black" points="0,-207 0,-228 208,-228 208,-207 0,-207"/>
<text text-anchor="start" x="67.5" y="-213.8" font-family="Times New Roman,Times,Liberation Serif,serif" font-size="14.00">experimenter</text>
<polygon fill="none" stroke="black" points="208,-207 208,-228 300,-228 300,-207 208,-207"/>
<text text-anchor="start" x="232" y="-213.8" font-family="Times New Roman,Times,Liberation Serif,serif" font-size="14.00">List[str]</text>
<polygon fill="none" stroke="black" points="0,-186 0,-207 208,-207 208,-186 0,-186"/>
<text text-anchor="start" x="92.5" y="-192.8" font-family="Times New Roman,Times,Liberation Serif,serif" font-size="14.00">date</text>
<polygon fill="none" stroke="black" points="208,-186 208,-207 300,-207 300,-186 208,-186"/>
<text text-anchor="start" x="211" y="-192.8" font-family="Times New Roman,Times,Liberation Serif,serif" font-size="14.00">AwareDatetime</text>
<polygon fill="none" stroke="black" points="0,-165 0,-186 208,-186 208,-165 0,-165"/>
<text text-anchor="start" x="78" y="-171.8" font-family="Times New Roman,Times,Liberation Serif,serif" font-size="14.00">root_path</text>
<polygon fill="none" stroke="black" points="208,-165 208,-186 300,-186 300,-165 208,-165"/>
<text text-anchor="start" x="247" y="-171.8" font-family="Times New Roman,Times,Liberation Serif,serif" font-size="14.00">str</text>
<polygon fill="none" stroke="black" points="0,-144 0,-165 208,-165 208,-144 0,-144"/>
<text text-anchor="start" x="66" y="-150.8" font-family="Times New Roman,Times,Liberation Serif,serif" font-size="14.00">session_name</text>
<polygon fill="none" stroke="black" points="208,-144 208,-165 300,-165 300,-144 208,-144"/>
<text text-anchor="start" x="219" y="-150.8" font-family="Times New Roman,Times,Liberation Serif,serif" font-size="14.00">Optional[str]</text>
<polygon fill="none" stroke="black" points="0,-123 0,-144 208,-144 208,-123 0,-123"/>
<text text-anchor="start" x="84.5" y="-129.8" font-family="Times New Roman,Times,Liberation Serif,serif" font-size="14.00">subject</text>
<polygon fill="none" stroke="black" points="208,-123 208,-144 300,-144 300,-123 208,-123"/>
<text text-anchor="start" x="247" y="-129.8" font-family="Times New Roman,Times,Liberation Serif,serif" font-size="14.00">str</text>
<polygon fill="none" stroke="black" points="0,-102 0,-123 208,-123 208,-102 0,-102"/>
<text text-anchor="start" x="49.5" y="-108.8" font-family="Times New Roman,Times,Liberation Serif,serif" font-size="14.00">experiment_version</text>
<polygon fill="none" stroke="black" points="208,-102 208,-123 300,-123 300,-102 208,-102"/>
<text text-anchor="start" x="247" y="-108.8" font-family="Times New Roman,Times,Liberation Serif,serif" font-size="14.00">str</text>
<polygon fill="none" stroke="black" points="0,-81 0,-102 208,-102 208,-81 0,-81"/>
<text text-anchor="start" x="89.5" y="-87.8" font-family="Times New Roman,Times,Liberation Serif,serif" font-size="14.00">notes</text>
<polygon fill="none" stroke="black" points="208,-81 208,-102 300,-102 300,-81 208,-81"/>
<text text-anchor="start" x="219" y="-87.8" font-family="Times New Roman,Times,Liberation Serif,serif" font-size="14.00">Optional[str]</text>
<polygon fill="none" stroke="black" points="0,-60 0,-81 208,-81 208,-60 0,-60"/>
<text text-anchor="start" x="66.5" y="-66.8" font-family="Times New Roman,Times,Liberation Serif,serif" font-size="14.00">commit_hash</text>
<polygon fill="none" stroke="black" points="208,-60 208,-81 300,-81 300,-60 208,-60"/>
<text text-anchor="start" x="219" y="-66.8" font-family="Times New Roman,Times,Liberation Serif,serif" font-size="14.00">Optional[str]</text>
<polygon fill="none" stroke="black" points="0,-39 0,-60 208,-60 208,-39 0,-39"/>
<text text-anchor="start" x="57" y="-45.8" font-family="Times New Roman,Times,Liberation Serif,serif" font-size="14.00">allow_dirty_repo</text>
<polygon fill="none" stroke="black" points="208,-39 208,-60 300,-60 300,-39 208,-39"/>
<text text-anchor="start" x="241.5" y="-45.8" font-family="Times New Roman,Times,Liberation Serif,serif" font-size="14.00">bool</text>
<polygon fill="none" stroke="black" points="0,-18 0,-39 208,-39 208,-18 0,-18"/>
<text text-anchor="start" x="33.5" y="-24.8" font-family="Times New Roman,Times,Liberation Serif,serif" font-size="14.00">skip_hardware_validation</text>
<polygon fill="none" stroke="black" points="208,-18 208,-39 300,-39 300,-18 208,-18"/>
<text text-anchor="start" x="241.5" y="-24.8" font-family="Times New Roman,Times,Liberation Serif,serif" font-size="14.00">bool</text>
</a>
</g>
</g>
</g>
</svg>
